<svg xmlns="http://www.w3.org/2000/svg" xmlns:xlink="http://www.w3.org/1999/xlink" viewBox="0 0 185.92 36.62" width="185.92" height="36.62"><defs><style>.cls-1{isolation:isolate;}.cls-2{fill:#0f2137;}.cls-3{fill:url(#linear-gradient);}.cls-4{fill:url(#linear-gradient-2);}.cls-5,.cls-6{mix-blend-mode:multiply;}.cls-5{fill:url(#linear-gradient-3);}.cls-7{fill:url(#linear-gradient-4);}.cls-8{fill:url(#linear-gradient-5);}.cls-9{mix-blend-mode:screen;fill:url(#radial-gradient);}</style><linearGradient id="linear-gradient" x1="16.08" y1="-16.52" x2="10.26" y2="20.44" gradientUnits="userSpaceOnUse"><stop offset="0" stop-color="#0096d9"/><stop offset="1" stop-color="#00c198"/></linearGradient><linearGradient id="linear-gradient-2" x1="8.95" y1="13.48" x2="18.28" y2="32.02" gradientUnits="userSpaceOnUse"><stop offset="0" stop-color="#002dd9"/><stop offset="1" stop-color="#00b2ab"/></linearGradient><linearGradient id="linear-gradient-3" x1="23.33" y1="-3.39" x2="5.66" y2="37.65" gradientUnits="userSpaceOnUse"><stop offset="0" stop-color="#3482c0"/><stop offset="0.45" stop-color="#96bede"/><stop offset="0.83" stop-color="#e1edf6"/><stop offset="1" stop-color="#fff"/></linearGradient><linearGradient id="linear-gradient-4" x1="21.64" y1="1.42" x2="6.63" y2="30.44" xlink:href="#linear-gradient-3"/><linearGradient id="linear-gradient-5" x1="25.15" y1="3.24" x2="10.14" y2="32.25" gradientUnits="userSpaceOnUse"><stop offset="0" stop-color="#569fa1"/><stop offset="0.36" stop-color="#97c4c5"/><stop offset="0.8" stop-color="#e2eeef"/><stop offset="1" stop-color="#fff"/></linearGradient><radialGradient id="radial-gradient" cx="21.16" cy="32.05" r="27.25" gradientUnits="userSpaceOnUse"><stop offset="0" stop-color="#ff0"/><stop offset="1"/></radialGradient></defs><g class="cls-1"><g id="Layer_2" data-name="Layer 2"><g id="Layer_1-2" data-name="Layer 1"><path class="cls-2" d="M39.64,22.9h2.85a1.86,1.86,0,0,0,.9,1.4,3.67,3.67,0,0,0,2,.53,3.33,3.33,0,0,0,1.9-.5A1.5,1.5,0,0,0,48,23a1.32,1.32,0,0,0-.54-1.1,4.91,4.91,0,0,0-1.83-.71l-1.84-.4Q40,20,40,16.9a3.81,3.81,0,0,1,1.5-3.13,6.14,6.14,0,0,1,3.89-1.19,6.07,6.07,0,0,1,3.89,1.16,3.86,3.86,0,0,1,1.5,3.08H48a1.77,1.77,0,0,0-.79-1.4,3,3,0,0,0-1.82-.52,3,3,0,0,0-1.77.48,1.49,1.49,0,0,0-.66,1.26,1.25,1.25,0,0,0,.53,1.05,5.29,5.29,0,0,0,1.77.68l1.71.36A6.18,6.18,0,0,1,50,20.14a3.42,3.42,0,0,1,1,2.56A3.93,3.93,0,0,1,49.45,26a6.63,6.63,0,0,1-4.17,1.2A6.65,6.65,0,0,1,41.22,26,3.9,3.9,0,0,1,39.64,22.9ZM53.33,14h2.85v2.42h1.93V18.6H56.18v5c0,.78.41,1.18,1.23,1.18a4.44,4.44,0,0,0,.69-.05v2.1a6.12,6.12,0,0,1-1.36.11,4.1,4.1,0,0,1-2.63-.66,2.74,2.74,0,0,1-.78-2.2V18.6H51.85V16.45h1.48ZM63.62,25a2.39,2.39,0,0,0,1.6-.55,1.74,1.74,0,0,0,.66-1.39v-.76l-2.2.13a2.3,2.3,0,0,0-1.24.4,1.09,1.09,0,0,0-.43.9,1.1,1.1,0,0,0,.44.93A1.83,1.83,0,0,0,63.62,25Zm-.94,2.06a3.6,3.6,0,0,1-2.51-.89,2.92,2.92,0,0,1-1-2.28,2.68,2.68,0,0,1,1-2.24,5.43,5.43,0,0,1,3-.93l2.63-.15v-.7a1.4,1.4,0,0,0-.47-1.13,1.91,1.91,0,0,0-1.28-.41,2.2,2.2,0,0,0-1.28.35,1.44,1.44,0,0,0-.6.95H59.64A3.21,3.21,0,0,1,61,17.17a5.31,5.31,0,0,1,3.29-1,5.05,5.05,0,0,1,3.23,1,3.09,3.09,0,0,1,1.21,2.54v7.2H65.93V25.31h-.06a3.08,3.08,0,0,1-1.3,1.3A3.89,3.89,0,0,1,62.68,27.08Zm7.85-.16V16.45h2.76v1.88h.06a2.86,2.86,0,0,1,.91-1.52,2.43,2.43,0,0,1,1.58-.53,2.88,2.88,0,0,1,.81.11V18.9a2.79,2.79,0,0,0-1-.17,2.16,2.16,0,0,0-1.64.62,2.39,2.39,0,0,0-.59,1.72v5.85Zm8-12.89h2.85v2.42h1.94V18.6H81.43v5c0,.78.41,1.18,1.23,1.18a4.68,4.68,0,0,0,.7-.05v2.1A6.24,6.24,0,0,1,82,27a4.15,4.15,0,0,1-2.64-.66,2.74,2.74,0,0,1-.78-2.2V18.6H77.11V16.45h1.47Zm16,2.42V26.92H91.84V25h-.06a3.07,3.07,0,0,1-3.13,2.08,3.71,3.71,0,0,1-2.75-1,4,4,0,0,1-1-2.87V16.45h2.85V22.6a2.28,2.28,0,0,0,.5,1.59,1.86,1.86,0,0,0,1.45.55,1.9,1.9,0,0,0,1.51-.63,2.4,2.4,0,0,0,.55-1.67v-6Zm8-.17a3.79,3.79,0,0,1,3.14,1.44,6.14,6.14,0,0,1,1.15,4,6.33,6.33,0,0,1-1.13,4,4.1,4.1,0,0,1-5.09.92,3.15,3.15,0,0,1-1.27-1.41H99.3v5.17H96.45V16.45h2.81v1.82h.06a3.35,3.35,0,0,1,1.27-1.46A3.7,3.7,0,0,1,102.56,16.28Zm-1,8.51A2,2,0,0,0,103.3,24a3.71,3.71,0,0,0,.63-2.27,3.67,3.67,0,0,0-.63-2.26,2,2,0,0,0-1.69-.85,2,2,0,0,0-1.68.86,3.6,3.6,0,0,0-.64,2.25A3.73,3.73,0,0,0,99.92,24,2,2,0,0,0,101.61,24.79Zm22.07-.32v2.45h-9.11V12.82h3V24.47Zm5.55.55a2.39,2.39,0,0,0,1.6-.55,1.74,1.74,0,0,0,.66-1.39v-.76l-2.2.13a2.3,2.3,0,0,0-1.24.4,1.09,1.09,0,0,0-.43.9,1.1,1.1,0,0,0,.44.93A1.83,1.83,0,0,0,129.23,25Zm-.94,2.06a3.59,3.59,0,0,1-2.51-.89,2.92,2.92,0,0,1-1-2.28,2.68,2.68,0,0,1,1-2.24,5.43,5.43,0,0,1,3-.93l2.63-.15v-.7a1.43,1.43,0,0,0-.47-1.13,1.91,1.91,0,0,0-1.28-.41,2.18,2.18,0,0,0-1.28.35,1.44,1.44,0,0,0-.6.95h-2.61a3.21,3.21,0,0,1,1.32-2.48,5.31,5.31,0,0,1,3.29-1,5.07,5.07,0,0,1,3.23,1,3.09,3.09,0,0,1,1.21,2.54v7.2h-2.76V25.31h-.06a3.08,3.08,0,0,1-1.3,1.3A3.89,3.89,0,0,1,128.29,27.08Zm7.85-.16V16.45h2.76v1.86H139a3.26,3.26,0,0,1,1.25-1.52,3.6,3.6,0,0,1,2-.54,3.46,3.46,0,0,1,2.68,1,4.12,4.12,0,0,1,1,2.88v6.75H143V20.76a2.31,2.31,0,0,0-.49-1.59,1.83,1.83,0,0,0-1.44-.55,2,2,0,0,0-1.52.63,2.39,2.39,0,0,0-.57,1.66v6Zm15.41.16a3.75,3.75,0,0,1-3.11-1.45,6.21,6.21,0,0,1-1.15-4,6.11,6.11,0,0,1,1.15-3.93,3.79,3.79,0,0,1,3.13-1.45,3.53,3.53,0,0,1,2,.54,3.17,3.17,0,0,1,1.25,1.42h0V12.82h2.86v14.1h-2.82v-1.8h-.05a3.09,3.09,0,0,1-1.26,1.42A3.67,3.67,0,0,1,151.55,27.08Zm1-8.51a2,2,0,0,0-1.7.84,3.75,3.75,0,0,0-.61,2.27,3.76,3.76,0,0,0,.61,2.28,2.15,2.15,0,0,0,3.39,0,3.72,3.72,0,0,0,.63-2.28,3.67,3.67,0,0,0-.63-2.26A2,2,0,0,0,152.52,18.57Zm7.11,8.35V16.45h2.85V26.92Zm2.51-12.05a1.52,1.52,0,0,1-1.09.42,1.49,1.49,0,0,1-1.08-.42,1.44,1.44,0,0,1-.44-1,1.38,1.38,0,0,1,.44-1,1.46,1.46,0,0,1,1.08-.43,1.49,1.49,0,0,1,1.09.43,1.38,1.38,0,0,1,.44,1A1.44,1.44,0,0,1,162.14,14.87Zm2.24,12.05V16.45h2.76v1.86h.06a3.26,3.26,0,0,1,1.25-1.52,3.6,3.6,0,0,1,2-.54,3.44,3.44,0,0,1,2.68,1,4.07,4.07,0,0,1,.95,2.88v6.75h-2.85V20.76a2.31,2.31,0,0,0-.49-1.59,1.79,1.79,0,0,0-1.43-.55,2,2,0,0,0-1.53.63,2.43,2.43,0,0,0-.56,1.66v6Zm16.36-2.23a2.05,2.05,0,0,0,1.7-.8,3.48,3.48,0,0,0,.64-2.23,3.6,3.6,0,0,0-.64-2.25,2,2,0,0,0-1.7-.84,2,2,0,0,0-1.68.84,3.69,3.69,0,0,0-.61,2.25,3.6,3.6,0,0,0,.61,2.23A2,2,0,0,0,180.74,24.69Zm-.05,6.17a5.84,5.84,0,0,1-3.36-.9,3.19,3.19,0,0,1-1.48-2.3h2.79a1.54,1.54,0,0,0,.74.88,2.8,2.8,0,0,0,1.39.34,2.41,2.41,0,0,0,1.69-.56,1.85,1.85,0,0,0,.61-1.47V25H183a3,3,0,0,1-1.24,1.37,3.89,3.89,0,0,1-2,.51,3.8,3.8,0,0,1-3.09-1.41,5.88,5.88,0,0,1-1.15-3.84,6.06,6.06,0,0,1,1.15-3.92,3.82,3.82,0,0,1,3.14-1.44,3.59,3.59,0,0,1,2,.54,3.37,3.37,0,0,1,1.27,1.45h0V16.45h2.82V26.77a3.58,3.58,0,0,1-1.44,3A6,6,0,0,1,180.69,30.86Z"/><g id="Logo"><path class="cls-3" d="M19.8.53A15.73,15.73,0,0,0,4.65,26.89h0L22.17,9.37A5.29,5.29,0,0,0,19.8.53Z"/><path class="cls-4" d="M6.65,36.09A15.73,15.73,0,0,0,21.81,9.73h0L4.29,27.25A5.28,5.28,0,0,0,6.65,36.09Z"/><path class="cls-5" d="M21.81,9.73,4.29,27.25a5.28,5.28,0,0,0,2.36,8.84,15.72,15.72,0,0,0,5.75.44c-7.68-7.39,9.41-26.8,9.41-26.8Z"/><g class="cls-6"><path class="cls-7" d="M6.33,36c-2.49-7.7,12.45-23.21,15.09-25.87L4.29,27.25A5.28,5.28,0,0,0,6.33,36Z"/><path class="cls-8" d="M21.75,9.79l.06-.06h0Z"/></g><path class="cls-9" d="M23.45,7.29,4.64,26.88h0L22.17,9.37A5.14,5.14,0,0,0,23.45,7.29Z"/></g></g></g></g></svg>