
<svg width="249" height="120" viewBox="0 0 249 120" fill="none" xmlns="http://www.w3.org/2000/svg">
<g opacity="0.5">
<path d="M177.064 29.8921C184.504 25.3248 192.888 22.4751 201.293 21.6699C208.457 20.9683 215.901 21.7457 222.99 23.8917L223.234 21.0445C215.864 18.9164 208.361 18.1759 201.028 18.8771C192.2 19.73 183.413 22.7131 175.605 27.5007C167.796 32.2883 161.17 38.7861 156.416 46.2836C155.074 48.3932 153.895 50.5727 152.864 52.8069C140.681 56.4224 129.84 63.1329 119.9 69.9485C117.479 71.6019 115.038 73.3235 112.686 74.9829C104.07 81.0305 95.1717 87.2777 85.6138 91.9155C74.8302 97.1479 62.7493 100.38 50.6738 101.263C38.2603 102.173 26.2181 100.708 14.8802 96.8969C10.2317 95.3236 5.71495 93.3559 1.43736 91.0449L1.17928 94.0587C5.33111 96.205 9.57971 98.0379 13.9981 99.5215C20.9037 101.848 28.0775 103.329 35.4083 103.957C40.4898 104.392 45.6626 104.416 50.8838 104.037C63.2972 103.128 75.7359 99.7997 86.8405 94.4129C96.5884 89.6795 105.59 83.3711 114.281 77.26C116.633 75.6007 119.073 73.8929 121.479 72.2522C130.631 65.9847 140.515 59.8219 151.456 56.1839C148.152 64.8828 147.27 74.041 149.068 82.4355C150.395 88.6629 153.306 94.5224 157.477 99.3845C161.8 104.428 167.198 108.038 173.101 109.816C179.14 111.649 185.861 111.399 192.038 109.158C198.376 106.846 203.509 102.599 206.516 97.2043C209.838 91.2489 210.591 83.9264 208.631 76.5954C206.777 69.6653 202.574 63.2195 197.083 58.9019C191.763 54.7248 185.295 52.0165 177.898 50.8653C171.204 49.8165 163.946 50.1323 156.911 51.7683C156.754 51.8108 156.598 51.8394 156.44 51.8819C157.146 50.5013 157.933 49.1417 158.774 47.8147C163.304 40.6477 169.624 34.4595 177.064 29.8921ZM157.533 54.4658C164.226 52.9124 171.118 52.6212 177.466 53.6125C184.395 54.6955 190.417 57.2118 195.357 61.0905C200.376 65.032 204.234 70.9445 205.927 77.3013C207.695 83.9303 207.033 90.5191 204.074 95.8339C198.62 105.636 185.356 110.6 173.89 107.142C168.504 105.519 163.558 102.2 159.577 97.5637C155.712 93.0496 153.015 87.6282 151.775 81.8558C149.945 73.3467 151.085 63.9449 154.874 55.1475C155.763 54.8878 156.649 54.6699 157.533 54.4658Z" fill="white"/>
<path d="M249 30.307L222.441 6.0615L222.054 16.7363L240.648 26.873L221.912 20.6774L221.911 20.6876L221.911 20.6754L213.712 23.379L221.695 26.6615L221.421 34.2449L249 30.307Z" fill="white"/>
</g>
</svg>
